<?xml version="1.0" encoding="UTF-8"?> <svg xmlns="http://www.w3.org/2000/svg" width="208" height="47" viewBox="0 0 208 47" fill="none"> <path d="M66.3314 46.792C66.151 46.792 66.0048 46.6461 66.0048 46.4654V0.326663C66.0048 0.146254 66.1507 0 66.3314 0C66.5121 0 66.6581 0.145964 66.6581 0.326663V46.4654C66.6581 46.6458 66.5118 46.792 66.3314 46.792Z" fill="#1D1D1B"></path> <path d="M76.1593 8.26196H87.0531V10.1173H78.432V16.4652H85.3811V18.32H78.432V25.0864H87.5234V26.9411H76.1591V8.26196H76.1593Z" fill="#1D1D1B" stroke="#1D1D1B" stroke-width="0.0723954" stroke-miterlimit="10"></path> <path d="M99.4616 27.176C96.7619 27.176 94.6329 26.3232 93.0743 24.6158C91.5155 22.9091 90.7363 20.6106 90.7363 17.7195V17.5104C90.7363 14.7411 91.563 12.4598 93.2183 10.6661C94.8724 8.87275 96.971 7.97534 99.5141 7.97534C101.552 7.97534 103.272 8.50673 104.674 9.56862C106.075 10.6311 106.881 12.1384 107.09 14.0881H104.844C104.582 12.6428 104.029 11.563 103.185 10.8489C102.34 10.1351 101.125 9.778 99.5401 9.778C97.6069 9.778 96.0481 10.4796 94.8637 11.8809C93.6793 13.2834 93.0874 15.1509 93.0874 17.4846V17.6937C93.0874 20.0796 93.6576 21.9476 94.7985 23.2974C95.9389 24.6468 97.5107 25.3219 99.5138 25.3219C101.064 25.3219 102.331 24.9347 103.315 24.1598C104.299 23.3849 104.913 22.2482 105.157 20.7502H107.273C106.959 22.8581 106.114 24.4557 104.739 25.544C103.363 26.6319 101.604 27.176 99.4616 27.176Z" fill="#1D1D1B" stroke="#1D1D1B" stroke-width="0.0723954" stroke-miterlimit="10"></path> <path d="M120.021 27.1762C117.304 27.1762 115.084 26.2666 113.359 24.4463C111.635 22.6265 110.773 20.384 110.773 17.7196V17.5105C110.773 14.8113 111.631 12.5561 113.346 10.7447C115.062 8.9334 117.269 8.02759 119.969 8.02759C122.668 8.02759 124.863 8.92876 126.552 10.7311C128.241 12.5335 129.086 14.776 129.086 17.4578V17.6669C129.086 20.3487 128.241 22.604 126.552 24.4333C124.863 26.262 122.686 27.1762 120.021 27.1762ZM120.021 25.295C122.076 25.295 123.709 24.5896 124.919 23.1794C126.13 21.7685 126.735 19.9227 126.735 17.6408V17.4318C126.735 15.2729 126.125 13.4697 124.906 12.0244C123.687 10.5785 122.041 9.85601 119.969 9.85601C117.844 9.85601 116.172 10.5571 114.953 11.959C113.734 13.3614 113.125 15.2028 113.125 17.4842V17.6932C113.125 19.923 113.782 21.7471 115.097 23.166C116.412 24.5859 118.053 25.295 120.021 25.295Z" fill="#1D1D1B" stroke="#1D1D1B" stroke-width="0.0723954" stroke-miterlimit="10"></path> <path d="M141.417 8.26196H144.578L150.351 22.8131L155.942 8.26196H159.077V26.9411H156.804V11.2142L150.613 26.9411H149.907L143.507 11.2142V26.9411H141.417V8.26196Z" fill="#1D1D1B" stroke="#1D1D1B" stroke-width="0.0723954" stroke-miterlimit="10"></path> <path d="M164.876 8.26196H167.149V26.9411H164.876V8.26196Z" fill="#1D1D1B" stroke="#1D1D1B" stroke-width="0.0723954" stroke-miterlimit="10"></path> <path d="M172.948 8.26196H175.9L184.991 23.7016V8.26196H187.159V26.9411H184.547L175.117 10.9267V26.9411H172.948V8.26196Z" fill="#1D1D1B" stroke="#1D1D1B" stroke-width="0.0723954" stroke-miterlimit="10"></path> <path d="M192.828 8.26196H197.766C200.849 8.26196 203.195 9.10696 204.806 10.7958C206.417 12.4852 207.223 14.6979 207.223 17.4316V17.667C207.223 20.4012 206.422 22.6304 204.819 24.3549C203.217 26.0788 200.848 26.9411 197.713 26.9411H192.828V8.26196H192.828ZM197.662 25.0864C200.013 25.0864 201.802 24.4287 203.03 23.1137C204.258 21.7993 204.872 19.9752 204.872 17.6409V17.4319C204.872 15.1505 204.284 13.3569 203.109 12.0509C201.933 10.7446 200.109 10.0915 197.636 10.0915H195.101V25.0867H197.662V25.0864Z" fill="#1D1D1B" stroke="#1D1D1B" stroke-width="0.0723954" stroke-miterlimit="10"></path> <path d="M82.2234 37.7668C81.5377 38.4525 80.7083 38.7948 79.7351 38.7948C78.7684 38.7948 77.9359 38.4522 77.2371 37.7668C76.5511 37.0677 76.2083 36.2349 76.2083 35.2686C76.2083 34.2953 76.5511 33.4662 77.2371 32.7799C77.9292 32.0878 78.7621 31.7415 79.7351 31.7415C80.7083 31.7415 81.5377 32.0878 82.2234 32.7799C82.9158 33.4662 83.2622 34.2953 83.2622 35.2686C83.2622 36.2418 82.9158 37.0741 82.2234 37.7668ZM77.3744 37.6391C78.0274 38.2921 78.8145 38.6187 79.7351 38.6187C80.6559 38.6187 81.4398 38.2921 82.0862 37.6391C82.7392 36.9861 83.0658 36.1958 83.0658 35.2683C83.0658 34.3407 82.7392 33.5508 82.0862 32.8975C81.4398 32.2445 80.6559 31.9178 79.7351 31.9178C78.8145 31.9178 78.0274 32.2445 77.3744 32.8975C76.7278 33.5505 76.4046 34.3407 76.4046 35.2683C76.4046 36.1958 76.7275 36.9861 77.3744 37.6391Z" fill="#1D1D1B" stroke="#1D1D1B" stroke-width="0.0723954" stroke-miterlimit="10"></path> <path d="M86.9844 33.7007C87.5331 33.7007 87.9802 33.8742 88.3266 34.2199C88.6726 34.5663 88.8458 35.0203 88.8458 35.5815V38.6971H88.65V35.5815C88.65 35.0788 88.498 34.6688 88.1942 34.3525C87.8907 34.0355 87.4842 33.8773 86.9745 33.8773C86.4 33.8773 85.9297 34.0795 85.564 34.4846C85.2046 34.8833 85.025 35.4118 85.025 36.0715V38.6974H84.8293V33.7991H85.025V35.1411C85.1559 34.6838 85.3957 34.3297 85.7452 34.0786C86.0945 33.8264 86.5077 33.7007 86.9844 33.7007Z" fill="#1D1D1B" stroke="#1D1D1B" stroke-width="0.0723954" stroke-miterlimit="10"></path> <path d="M90.7561 38.6972H90.5604V31.5457H90.7561V38.6972Z" fill="#1D1D1B" stroke="#1D1D1B" stroke-width="0.0723954" stroke-miterlimit="10"></path> <path d="M92.9308 32.0303C92.9502 32.1056 92.9308 32.1789 92.8721 32.251C92.813 32.3231 92.7412 32.3442 92.6566 32.3147C92.5715 32.2854 92.5176 32.231 92.495 32.1528C92.4721 32.0743 92.4898 32.0028 92.5489 31.9374C92.614 31.8722 92.6893 31.8525 92.7739 31.8786C92.8587 31.9046 92.9111 31.9556 92.9308 32.0303ZM92.8133 38.6971H92.6175V33.7988H92.8133V38.6971Z" fill="#1D1D1B" stroke="#1D1D1B" stroke-width="0.0723954" stroke-miterlimit="10"></path> <path d="M96.8298 33.7007C97.3786 33.7007 97.8257 33.8742 98.172 34.2199C98.5181 34.5663 98.6912 35.0203 98.6912 35.5815V38.6971H98.4955V35.5815C98.4955 35.0788 98.3435 34.6688 98.0397 34.3525C97.7362 34.0355 97.3296 33.8773 96.82 33.8773C96.2454 33.8773 95.7752 34.0795 95.4094 34.4846C95.05 34.8833 94.8705 35.4118 94.8705 36.0715V38.6974H94.6747V33.7991H94.8705V35.1411C95.0014 34.6838 95.2412 34.3297 95.5907 34.0786C95.9396 33.8264 96.3529 33.7007 96.8298 33.7007Z" fill="#1D1D1B" stroke="#1D1D1B" stroke-width="0.0723954" stroke-miterlimit="10"></path> <path d="M102.492 33.7007C103.204 33.7007 103.782 33.9558 104.226 34.4649C104.677 34.9618 104.902 35.5624 104.902 36.2673V36.3654H100.21C100.242 37.032 100.474 37.5741 100.905 37.9917C101.343 38.4096 101.885 38.6187 102.531 38.6187C102.963 38.6187 103.35 38.5274 103.692 38.3444C104.036 38.1614 104.288 37.9164 104.452 37.6098L104.618 37.7073C104.422 38.0409 104.142 38.305 103.776 38.5014C103.41 38.6971 102.995 38.7947 102.532 38.7947C101.807 38.7947 101.206 38.5567 100.729 38.0797C100.252 37.6034 100.014 36.9924 100.014 36.2478C100.014 35.5227 100.246 34.9187 100.71 34.4353C101.18 33.9457 101.774 33.7007 102.492 33.7007ZM100.21 36.1893H104.726C104.687 35.503 104.455 34.9482 104.03 34.5234C103.612 34.0928 103.1 33.8773 102.492 33.8773C101.852 33.8773 101.314 34.096 100.876 34.5335C100.438 34.9711 100.216 35.5227 100.21 36.1893Z" fill="#1D1D1B" stroke="#1D1D1B" stroke-width="0.0723954" stroke-miterlimit="10"></path> <path d="M109.996 35.7582H106.47V35.5815H109.996V35.7582Z" fill="#1D1D1B" stroke="#1D1D1B" stroke-width="0.0723954" stroke-miterlimit="10"></path> <path d="M116.481 35.2977V33.7988H116.678V38.6971H116.481V37.1982C116.299 37.6746 115.992 38.0638 115.561 38.364C115.136 38.651 114.656 38.7947 114.121 38.7947C113.409 38.7947 112.805 38.5497 112.309 38.06C111.812 37.57 111.564 36.9662 111.564 36.2481C111.564 35.5293 111.812 34.9253 112.309 34.4356C112.805 33.9456 113.409 33.7009 114.121 33.7009C114.663 33.7009 115.143 33.8483 115.561 34.1417C115.985 34.4289 116.292 34.8141 116.481 35.2977ZM111.76 36.2478C111.76 36.9135 111.988 37.4756 112.446 37.9329C112.903 38.3901 113.461 38.6186 114.121 38.6186C114.78 38.6186 115.339 38.3904 115.796 37.9329C116.253 37.4756 116.482 36.9135 116.482 36.2478C116.482 35.5812 116.253 35.02 115.796 34.5627C115.339 34.1055 114.78 33.877 114.121 33.877C113.461 33.877 112.903 34.1055 112.446 34.5627C111.988 35.0202 111.76 35.5815 111.76 36.2478Z" fill="#1D1D1B" stroke="#1D1D1B" stroke-width="0.0723954" stroke-miterlimit="10"></path> <path d="M118.94 36.1497L121.879 38.6971H121.605L118.735 36.2084V38.6971H118.539V33.7988H118.735V36.0912L121.507 33.7988H121.781L118.94 36.1497Z" fill="#1D1D1B" stroke="#1D1D1B" stroke-width="0.0723954" stroke-miterlimit="10"></path> <path d="M127.189 35.2977V33.7988H127.385V38.6971H127.189V37.1982C127.006 37.6746 126.699 38.0638 126.269 38.364C125.844 38.651 125.364 38.7947 124.828 38.7947C124.116 38.7947 123.512 38.5497 123.016 38.06C122.52 37.57 122.272 36.9662 122.272 36.2481C122.272 35.5293 122.52 34.9253 123.016 34.4356C123.513 33.9456 124.116 33.7009 124.828 33.7009C125.371 33.7009 125.85 33.8483 126.269 34.1417C126.693 34.4289 126.999 34.8141 127.189 35.2977ZM122.467 36.2478C122.467 36.9135 122.696 37.4756 123.153 37.9329C123.61 38.3901 124.169 38.6186 124.828 38.6186C125.488 38.6186 126.046 38.3904 126.504 37.9329C126.961 37.4756 127.189 36.9135 127.189 36.2478C127.189 35.5812 126.961 35.02 126.504 34.5627C126.046 34.1055 125.488 33.877 124.828 33.877C124.169 33.877 123.61 34.1055 123.153 34.5627C122.696 35.0202 122.467 35.5815 122.467 36.2478Z" fill="#1D1D1B" stroke="#1D1D1B" stroke-width="0.0723954" stroke-miterlimit="10"></path> <path d="M133.067 33.7988V38.5205H133.753V40.0098H133.557V38.6971H128.855V40.0098H128.659V38.5205H129.178C129.57 37.9593 129.766 37.2246 129.766 36.3162V33.7988H133.067ZM129.403 38.5205H132.871V33.9749H129.961V36.3162C129.962 37.2174 129.776 37.9523 129.403 38.5205Z" fill="#1D1D1B" stroke="#1D1D1B" stroke-width="0.0723954" stroke-miterlimit="10"></path> <path d="M137.015 33.7007C137.727 33.7007 138.305 33.9558 138.749 34.4649C139.2 34.9618 139.426 35.5624 139.426 36.2673V36.3654H134.733C134.766 37.032 134.997 37.5741 135.428 37.9917C135.866 38.4096 136.408 38.6187 137.055 38.6187C137.486 38.6187 137.873 38.5274 138.215 38.3444C138.559 38.1614 138.811 37.9164 138.974 37.6098L139.141 37.7073C138.945 38.0409 138.665 38.305 138.299 38.5014C137.933 38.6971 137.518 38.7947 137.055 38.7947C136.33 38.7947 135.729 38.5567 135.252 38.0797C134.775 37.6034 134.537 36.9924 134.537 36.2478C134.537 35.5227 134.769 34.9187 135.233 34.4353C135.702 33.9457 136.297 33.7007 137.015 33.7007ZM134.732 36.1893H139.249C139.21 35.503 138.978 34.9482 138.553 34.5234C138.135 34.0928 137.623 33.8773 137.015 33.8773C136.375 33.8773 135.837 34.096 135.399 34.5335C134.961 34.9711 134.739 35.5227 134.732 36.1893Z" fill="#1D1D1B" stroke="#1D1D1B" stroke-width="0.0723954" stroke-miterlimit="10"></path> <path d="M145.234 33.7988H145.499V38.6971H145.303V34.0438L143.226 37.169H143.167L141.091 34.0438V38.6971H140.895V33.7988H141.159L143.197 36.8551L145.234 33.7988Z" fill="#1D1D1B" stroke="#1D1D1B" stroke-width="0.0723954" stroke-miterlimit="10"></path> <path d="M147.556 38.3832L151.083 33.7988H151.279V38.6971H151.083V34.1119L147.556 38.6971H147.36V33.7988H147.556V38.3832Z" fill="#1D1D1B" stroke="#1D1D1B" stroke-width="0.0723954" stroke-miterlimit="10"></path> <path d="M154.433 33.7988H156.275V38.6971H156.079V36.7181H154.59L153.003 38.6971H152.748L154.365 36.7181C153.94 36.7054 153.581 36.5681 153.287 36.3066C152.993 36.0451 152.846 35.6994 152.846 35.2682C152.846 34.8306 152.999 34.4779 153.307 34.21C153.62 33.9361 153.996 33.7988 154.433 33.7988ZM154.433 36.542H156.079V33.9749H154.433C154.034 33.9749 153.702 34.0994 153.434 34.3473C153.173 34.5891 153.042 34.8958 153.042 35.2682C153.042 35.64 153.173 35.9455 153.434 36.1841C153.695 36.4227 154.028 36.542 154.433 36.542Z" fill="#1D1D1B" stroke="#1D1D1B" stroke-width="0.0723954" stroke-miterlimit="10"></path> <path d="M46.8363 15.412C48.18 23.3848 38.8134 31.6101 25.9152 33.784C13.0169 35.9578 1.47192 31.2568 0.128258 23.284C-1.2154 15.3113 8.15111 7.08599 21.0494 4.9121C33.9476 2.73821 45.4926 7.43928 46.8363 15.412Z" fill="url(#paint0_linear_1328_9076)"></path> <path d="M37.6819 27.8557C33.1285 34.0455 31.682 40.7146 34.451 42.7518C37.22 44.789 43.1561 41.422 47.7095 35.2322C52.2629 29.0424 53.7093 22.3734 50.9403 20.3362C48.1711 18.2992 42.2352 21.6656 37.6819 27.8557Z" fill="url(#paint1_linear_1328_9076)"></path> <path d="M18.7576 32.4646C20.7418 37.6276 29.7255 38.9788 38.8233 35.4824C47.9211 31.986 53.6881 24.9662 51.7039 19.8033C49.7197 14.6403 40.736 13.2891 31.6382 16.7855C22.5404 20.2819 16.7737 27.3017 18.7576 32.4646Z" fill="url(#paint2_linear_1328_9076)"></path> <path d="M55.8849 22.3334C53.7634 28.2209 44.0491 30.113 34.1874 26.5595C24.3257 23.0061 18.0511 15.3527 20.1725 9.46524C22.294 3.57776 32.0083 1.68564 41.87 5.23909C51.7317 8.79254 58.0064 16.4459 55.8849 22.3334Z" fill="url(#paint3_linear_1328_9076)"></path> <path opacity="0.17" d="M35.8646 30.6218C34.5575 32.8771 33.6792 35.0953 33.2839 37.0334C27.4853 38.0586 22.3577 37.0514 19.8965 34.3143C21.8443 34.3027 23.8615 34.1304 25.9138 33.7849C29.5691 33.1687 32.9405 32.0677 35.8646 30.6218Z" fill="white"></path> <path opacity="0.32" d="M55.8844 22.3346C55.2314 24.1459 53.8596 25.5788 51.9861 26.5923C52.4204 24.8073 52.4679 23.2297 52.0918 22.0375C52.1033 21.2672 51.9777 20.5177 51.7028 19.8045C50.9578 17.8663 49.2269 16.4651 46.8735 15.6565C46.8619 15.5752 46.8492 15.4938 46.8356 15.4124C45.6636 8.45464 36.7211 3.98872 25.8901 4.40919C30.0928 2.93609 35.9548 3.1084 41.8698 5.23972C51.7312 8.79289 58.0053 16.4462 55.8844 22.3346Z" fill="white"></path> <path opacity="0.04" d="M46.3586 20.3329C43.6745 21.4406 40.5305 24.0486 37.844 27.6365C36.6362 27.3596 35.4124 27.0023 34.1866 26.5607C30.2744 25.1498 26.9253 23.0944 24.4431 20.7589C26.4583 19.2128 28.8962 17.8402 31.6377 16.7864C37.3199 14.603 42.958 14.3105 46.8735 15.6568C47.0938 17.224 46.9047 18.7985 46.3586 20.3329Z" fill="#4B499E"></path> <path opacity="0.02" d="M46.3584 20.333C45.3596 23.1431 43.1649 25.8177 40.1086 28.0622C39.3627 27.9522 38.6069 27.8106 37.8438 27.6363C40.53 24.0486 43.674 21.4407 46.3584 20.333Z" fill="white"></path> <path opacity="0.06" d="M51.9855 26.5922C51.3936 26.9113 50.7513 27.1893 50.0665 27.4239C51.3493 25.6293 52.0701 23.7789 52.0912 22.0374C52.4674 23.2296 52.4199 24.8075 51.9855 26.5922Z" fill="white"></path> <path opacity="0.08" d="M52.0913 22.0377C51.8651 21.3181 51.4838 20.7377 50.9385 20.3373C49.8256 19.5183 48.2005 19.5722 46.3585 20.3329C46.9049 18.7984 47.094 17.224 46.873 15.6567C49.2265 16.4652 50.9576 17.8665 51.7024 19.8047C51.9772 20.518 52.1029 21.2671 52.0913 22.0377Z" fill="white"></path> <defs> <linearGradient id="paint0_linear_1328_9076" x1="31.4927" y1="26.4538" x2="-4.3069" y2="4.03668" gradientUnits="userSpaceOnUse"> <stop offset="0.1371" stop-color="#736AE7"></stop> <stop offset="0.2536" stop-color="#8176E5"></stop> <stop offset="0.4738" stop-color="#A697E0"></stop> <stop offset="0.772" stop-color="#E1CBD8"></stop> <stop offset="0.812" stop-color="#E9D3D7"></stop> </linearGradient> <linearGradient id="paint1_linear_1328_9076" x1="44.7139" y1="23.5645" x2="40.0949" y2="48.5059" gradientUnits="userSpaceOnUse"> <stop offset="0.13" stop-color="#736AE7"></stop> <stop offset="0.2478" stop-color="#8176E5"></stop> <stop offset="0.4702" stop-color="#A697E0"></stop> <stop offset="0.7716" stop-color="#E1CBD8"></stop> <stop offset="0.812" stop-color="#E9D3D7"></stop> </linearGradient> <linearGradient id="paint2_linear_1328_9076" x1="42.5191" y1="21.4002" x2="13.8363" y2="36.7985" gradientUnits="userSpaceOnUse"> <stop offset="0.177" stop-color="#736AE7"></stop> <stop offset="0.302" stop-color="#8176E5"></stop> <stop offset="0.5381" stop-color="#A697E0"></stop> <stop offset="0.8579" stop-color="#E1CBD8"></stop> <stop offset="0.9009" stop-color="#E9D3D7"></stop> </linearGradient> <linearGradient id="paint3_linear_1328_9076" x1="49.0789" y1="5.07196" x2="13.742" y2="32.6798" gradientUnits="userSpaceOnUse"> <stop offset="0.1371" stop-color="#736AE7"></stop> <stop offset="0.2536" stop-color="#8176E5"></stop> <stop offset="0.4738" stop-color="#A697E0"></stop> <stop offset="0.772" stop-color="#E1CBD8"></stop> <stop offset="0.812" stop-color="#E9D3D7"></stop> </linearGradient> </defs> </svg> 